<?xml version="1.0" encoding="utf-8"?>
<!-- Generator: Adobe Illustrator 26.1.0, SVG Export Plug-In . SVG Version: 6.00 Build 0)  -->
<svg version="1.1" id="Layer_1" xmlns="http://www.w3.org/2000/svg" xmlns:xlink="http://www.w3.org/1999/xlink" x="0px" y="0px"
	 width="334px" height="218px" viewBox="0 0 334 218" style="enable-background:new 0 0 334 218;" xml:space="preserve">
<style type="text/css">
	.st0{fill:#CDCFD0;}
	.st1{fill:none;stroke:#CDCFD0;stroke-width:7.2847;stroke-linecap:round;stroke-miterlimit:10;}
</style>
<g>
	<path class="st0" d="M98,92.7h-8.6L72.6,65.1v27.5H64V50.8h8.6l16.8,27.6V50.8H98C98,50.8,98,92.7,98,92.7z"/>
	<path class="st0" d="M103.7,76.8c0-3.1,0.6-5.8,1.8-8.2s2.9-4.3,5.1-5.6c2.2-1.3,4.8-2,7.8-2c4.2,0,7.6,1.3,10.3,3.9
		c2.7,2.6,4.1,6.1,4.4,10.5l0.1,2.1c0,4.8-1.3,8.6-4,11.5c-2.7,2.9-6.2,4.3-10.7,4.3s-8.1-1.4-10.7-4.3c-2.7-2.9-4-6.8-4-11.7v-0.5
		H103.7z M112,77.4c0,3,0.6,5.2,1.7,6.8c1.1,1.6,2.7,2.3,4.8,2.3c2,0,3.6-0.8,4.7-2.3c1.1-1.5,1.7-4,1.7-7.4c0-2.9-0.6-5.1-1.7-6.7
		s-2.7-2.4-4.8-2.4c-2,0-3.6,0.8-4.7,2.4C112.5,71.6,112,74.1,112,77.4z"/>
	<path class="st0" d="M162.1,85.7h18.3v6.9h-26.9V50.8h8.6L162.1,85.7L162.1,85.7z"/>
	<path class="st0" d="M183.5,76.8c0-3.1,0.6-5.8,1.8-8.2s2.9-4.3,5.1-5.6s4.8-2,7.8-2c4.2,0,7.6,1.3,10.3,3.9s4.1,6.1,4.4,10.5
		l0.1,2.1c0,4.8-1.3,8.6-4,11.5s-6.2,4.3-10.7,4.3s-8.1-1.4-10.7-4.3c-2.7-2.9-4-6.8-4-11.7v-0.5H183.5z M191.8,77.4
		c0,3,0.6,5.2,1.7,6.8c1.1,1.6,2.7,2.3,4.8,2.3c2,0,3.6-0.8,4.7-2.3c1.1-1.5,1.7-4,1.7-7.4c0-2.9-0.6-5.1-1.7-6.7s-2.7-2.4-4.8-2.4
		c-2,0-3.6,0.8-4.7,2.4C192.4,71.6,191.8,74.1,191.8,77.4z"/>
	<path class="st0" d="M216.9,76.9c0-4.8,1.1-8.6,3.4-11.5c2.3-2.9,5.3-4.4,9.2-4.4c3.4,0,6.1,1.2,8,3.5l0.3-2.9h7.5v30.1
		c0,2.7-0.6,5.1-1.9,7.1c-1.2,2-3,3.5-5.2,4.6s-4.9,1.6-7.9,1.6c-2.3,0-4.5-0.5-6.7-1.4s-3.8-2.1-4.9-3.5l3.7-5.1
		c2.1,2.3,4.6,3.5,7.5,3.5c2.2,0,3.9-0.6,5.1-1.8c1.2-1.2,1.8-2.9,1.8-5V90c-1.9,2.2-4.4,3.2-7.6,3.2c-3.7,0-6.8-1.5-9.1-4.4
		s-3.5-6.8-3.5-11.6v-0.3H216.9z M225.2,77.5c0,2.8,0.6,5,1.7,6.6c1.1,1.6,2.7,2.4,4.7,2.4c2.5,0,4.3-1,5.4-2.9v-13
		c-1.1-1.9-2.9-2.9-5.4-2.9c-2,0-3.6,0.8-4.7,2.4C225.8,71.8,225.2,74.2,225.2,77.5z"/>
	<path class="st0" d="M250.4,76.8c0-3.1,0.6-5.8,1.8-8.2c1.2-2.4,2.9-4.3,5.1-5.6c2.2-1.3,4.8-2,7.8-2c4.2,0,7.6,1.3,10.3,3.9
		c2.7,2.6,4.1,6.1,4.4,10.5l0.1,2.1c0,4.8-1.3,8.6-4,11.5s-6.2,4.3-10.7,4.3s-8.1-1.4-10.7-4.3c-2.6-2.9-4-6.8-4-11.7L250.4,76.8
		L250.4,76.8z M258.7,77.4c0,3,0.6,5.2,1.7,6.8c1.1,1.6,2.7,2.3,4.8,2.3c2,0,3.6-0.8,4.7-2.3s1.7-4,1.7-7.4c0-2.9-0.6-5.1-1.7-6.7
		s-2.7-2.4-4.8-2.4c-2,0-3.6,0.8-4.7,2.4C259.3,71.6,258.7,74.1,258.7,77.4z"/>
	<path class="st0" d="M81.2,121.4V149c0,4.6-1.4,8.2-4.3,10.9s-6.8,4-11.7,4c-4.9,0-8.8-1.3-11.6-3.9c-2.9-2.6-4.3-6.1-4.4-10.7
		v-27.9h8.6V149c0,2.7,0.7,4.7,2,6s3.1,1.9,5.4,1.9c4.8,0,7.3-2.5,7.4-7.6v-27.9L81.2,121.4L81.2,121.4z"/>
	<path class="st0" d="M115.7,148c0,4.8-1.1,8.6-3.3,11.5s-5.1,4.3-8.8,4.3c-3.1,0-5.7-1.1-7.6-3.3v14.7h-8.3v-43.1h7.7l0.3,3
		c2-2.4,4.6-3.6,7.9-3.6c3.8,0,6.8,1.4,8.9,4.3c2.1,2.8,3.2,6.7,3.2,11.7L115.7,148L115.7,148z M107.4,147.4c0-2.9-0.5-5.1-1.5-6.7
		c-1-1.6-2.5-2.4-4.5-2.4c-2.6,0-4.4,1-5.4,3V154c1,2.1,2.8,3.1,5.4,3.1C105.4,157.2,107.4,153.9,107.4,147.4z"/>
	<path class="st0" d="M129.6,163.3h-8.3v-44.2h8.3V163.3z"/>
	<path class="st0" d="M135.1,147.5c0-3.1,0.6-5.8,1.8-8.2s2.9-4.3,5.1-5.6s4.8-2,7.8-2c4.2,0,7.6,1.3,10.3,3.9
		c2.7,2.6,4.1,6.1,4.4,10.5l0.1,2.1c0,4.8-1.3,8.6-4,11.5s-6.2,4.3-10.7,4.3s-8.1-1.4-10.7-4.3c-2.7-2.9-4-6.8-4-11.7v-0.5H135.1z
		 M143.4,148c0,3,0.6,5.2,1.7,6.8c1.1,1.6,2.7,2.3,4.8,2.3c2,0,3.6-0.8,4.7-2.3c1.1-1.5,1.7-4,1.7-7.4c0-2.9-0.6-5.1-1.7-6.7
		s-2.7-2.4-4.8-2.4c-2,0-3.6,0.8-4.7,2.4S143.4,144.7,143.4,148z"/>
	<path class="st0" d="M187.7,163.3c-0.4-0.7-0.7-1.7-0.8-2.8c-2,2.2-4.6,3.4-7.8,3.4c-3,0-5.6-0.9-7.6-2.6c-2-1.8-3-4-3-6.7
		c0-3.3,1.2-5.8,3.7-7.6c2.4-1.8,6-2.7,10.6-2.7h3.8v-1.8c0-1.4-0.4-2.6-1.1-3.4c-0.7-0.9-1.9-1.3-3.5-1.3c-1.4,0-2.5,0.3-3.3,1
		s-1.2,1.6-1.2,2.8h-8.3c0-1.8,0.6-3.5,1.7-5s2.7-2.7,4.7-3.6c2-0.9,4.3-1.3,6.8-1.3c3.8,0,6.9,1,9.1,2.9s3.4,4.6,3.4,8.1v13.5
		c0,3,0.4,5.2,1.2,6.7v0.5L187.7,163.3L187.7,163.3z M180.9,157.5c1.2,0,2.4-0.3,3.4-0.8s1.8-1.3,2.3-2.2v-5.3h-3.1
		c-4.2,0-6.4,1.4-6.6,4.3v0.5c0,1,0.4,1.9,1.1,2.6C178.6,157.2,179.6,157.5,180.9,157.5z"/>
	<path class="st0" d="M200,147.5c0-4.8,1.1-8.7,3.3-11.6c2.2-2.9,5.2-4.3,8.9-4.3c3,0,5.5,1.1,7.5,3.4v-15.9h8.3v44.2h-7.5l-0.4-3.3
		c-2.1,2.6-4.7,3.9-8,3.9c-3.7,0-6.6-1.4-8.8-4.3C201.1,156.7,200,152.7,200,147.5z M208.3,148.1c0,2.9,0.5,5.2,1.5,6.7
		s2.5,2.3,4.4,2.3c2.6,0,4.4-1.1,5.4-3.3v-12.3c-1-2.2-2.8-3.3-5.4-3.3C210.3,138.4,208.3,141.6,208.3,148.1z"/>
	<path class="st0" d="M248.8,163.9c-4.6,0-8.3-1.4-11.1-4.2c-2.9-2.8-4.3-6.5-4.3-11.2v-0.8c0-3.1,0.6-5.9,1.8-8.4s2.9-4.4,5.1-5.7
		s4.7-2,7.6-2c4.3,0,7.6,1.3,10,4c2.4,2.7,3.7,6.5,3.7,11.4v3.4h-19.8c0.3,2,1.1,3.7,2.4,4.9s3.1,1.8,5.1,1.8c3.2,0,5.7-1.2,7.5-3.5
		l4.1,4.6c-1.2,1.8-2.9,3.1-5.1,4.1C253.7,163.4,251.4,163.9,248.8,163.9z M247.8,138.3c-1.6,0-3,0.6-4,1.7c-1,1.1-1.7,2.7-2,4.8
		h11.6v-0.7c0-1.8-0.5-3.3-1.5-4.3S249.6,138.3,247.8,138.3z"/>
	<path class="st0" d="M265,147.5c0-4.8,1.1-8.7,3.3-11.6c2.2-2.9,5.2-4.3,8.9-4.3c3,0,5.5,1.1,7.5,3.4v-15.9h8.3v44.2h-7.5l-0.4-3.3
		c-2.1,2.6-4.7,3.9-8,3.9c-3.7,0-6.6-1.4-8.8-4.3C266.1,156.7,265,152.7,265,147.5z M273.3,148.1c0,2.9,0.5,5.2,1.5,6.7
		s2.5,2.3,4.4,2.3c2.6,0,4.4-1.1,5.4-3.3v-12.3c-1-2.2-2.8-3.3-5.4-3.3C275.3,138.4,273.3,141.6,273.3,148.1z"/>
</g>
<g>
	<polyline class="st1" points="3.6,34.2 3.6,3.6 34.2,3.6 	"/>
	<polyline class="st1" points="299.7,3.6 330.3,3.6 330.3,34.2 	"/>
</g>
<g>
	<polyline class="st1" points="330.3,183.7 330.3,214.3 299.7,214.3 	"/>
	<polyline class="st1" points="34.2,214.3 3.6,214.3 3.6,183.7 	"/>
</g>
</svg>
